<svg width="63" height="63" viewBox="0 0 63 63" fill="none" xmlns="http://www.w3.org/2000/svg">
<path d="M37.1862 21.4687C37.1386 22.2027 45.2856 22.5462 47.0208 22.5613C46.9093 24.6835 46.534 31.1721 47.7284 31.2017C48.9319 31.2309 48.8656 24.6037 48.8571 22.5503C50.7563 22.5076 54.3877 22.2884 56.225 21.7904C57.157 21.5249 57.1689 21.285 57.1419 21.0241C57.1149 20.763 57.051 20.5305 56.0961 20.4526C54.9667 20.3457 51.9452 20.5143 48.8332 20.6618C48.7614 17.1716 48.534 13.3722 48.1643 13.3633C47.7905 13.3542 47.3724 17.227 47.1314 20.7425C40.314 21.0663 37.207 21.1398 37.1862 21.4687Z" fill="#04BB21"/>
<path d="M44.4078 8.72943C43.3909 8.94658 42.8516 9.13685 42.8659 9.19313C42.8821 9.264 43.4497 9.2002 44.4547 9.10951C55.4646 8.58237 61.6842 17.9621 59.2743 25.7575C58.8758 27.0785 58.2396 28.3297 57.423 29.4423C55.1704 32.5173 51.3012 34.6896 47.2837 34.8992C42.3139 35.1798 36.9957 32.6525 35.4176 26.2764C33.8671 20.0511 35.9729 12.7483 42.4121 9.70834C42.8823 9.45472 42.8971 9.32028 42.8659 9.19313C42.8346 9.06576 42.772 8.95342 42.2007 8.99945C39.209 9.10035 34.1779 13.0182 33.2611 20.4934C29.9522 20.5873 26.9438 20.7017 24.3561 20.8436C21.2594 21.0015 18.7565 21.1891 17.0287 21.3374C16.0588 21.4272 15.3435 21.5031 14.8943 21.5646C14.8718 21.4914 14.8516 21.4144 14.8287 21.3422C14.3439 19.805 13.7792 18.4237 13.1237 17.2297C10.4455 12.2194 5.86839 10.0189 2.71683 10.3236C1.75923 10.4446 1.71445 10.6038 1.72522 10.7246C1.7361 10.8641 1.82702 10.9561 2.70136 11.0632C10.3919 12.23 12.9784 19.1932 14.3599 26.7476C16.7374 39.6405 16.7548 40.3834 17.3557 41.6454C17.6871 42.3622 18.2701 43.0397 18.943 43.4975C19.993 44.2027 21.1427 44.5096 22.2652 44.7129C21.7647 45.0189 21.3164 45.4355 20.9889 45.9495C20.0628 47.3541 20.1576 49.405 20.6998 50.6638C22.2142 54.0648 24.7227 54.9863 27.1226 54.2096C29.4769 53.4777 30.659 51.081 29.98 48.9687C29.7678 48.279 29.5263 47.9912 29.361 47.8604C29.1931 47.7312 29.0738 47.7686 28.952 47.8175C28.8303 47.8665 28.7197 47.9278 28.6685 48.1206C28.523 48.6493 29.2419 51.6817 26.577 52.4295C24.5831 53.019 23.351 51.8687 22.3943 50.0133C22.0085 49.2407 21.7774 47.7715 22.3376 46.7648C22.677 46.135 23.2883 45.6729 23.9799 45.4869C24.672 45.296 25.416 45.3678 26.0573 45.5902C26.6892 45.8379 27.2387 46.1851 27.6629 46.5208C28.4938 47.2183 28.8206 47.8759 28.952 47.8175C29.0613 47.7872 28.9771 46.9925 28.1925 46.0044C28.0281 45.8107 27.8305 45.6132 27.6117 45.4184C29.1937 45.5786 30.829 45.7043 32.5226 45.7834C35.8602 45.9395 39.6568 45.929 43.7263 45.6198C43.6418 45.7253 43.5616 45.8344 43.4883 45.9495C42.2747 47.7902 42.9822 49.8907 42.9854 49.9374C43.0569 50.1814 43.1026 50.4396 43.1992 50.6638C44.7264 54.0936 47.1866 54.9978 49.622 54.2096C51.9685 53.4801 53.1611 51.0899 52.4794 48.9687C52.2672 48.279 52.0257 47.9912 51.8604 47.8604C51.6925 47.7312 51.5732 47.7686 51.4515 47.8175C51.3298 47.8665 51.2191 47.9278 51.1679 48.1206C51.1154 48.3116 51.143 48.6363 51.1551 49.197C51.1594 50.7777 50.5983 52.0024 49.0764 52.4295C47.084 53.0186 45.8412 51.8505 44.8937 50.0133C44.8066 49.8389 44.775 49.6539 44.7089 49.4721C44.7221 49.4254 43.6283 46.2535 46.4793 45.4869C49.2819 44.7137 51.2987 47.8854 51.4515 47.8175C51.6425 47.7646 51.2959 46.2035 49.5726 44.9886C50.2341 44.8968 50.9063 44.791 51.602 44.6338C54.3916 44.0084 56.2188 42.6872 57.647 39.9113C59.3224 36.6688 60.9014 30.8834 61.0676 25.1241C61.0684 25.0625 61.0666 25.0001 61.0667 24.9381C62.77 15.126 53.7894 7.13038 44.4078 8.72943ZM56.0962 39.0979C54.9031 41.368 53.5207 42.3624 51.204 42.8629C50.1355 43.0982 48.981 43.217 47.8612 43.3596C42.9079 43.9361 37.9143 44.133 32.6122 43.8848C30.4236 43.7827 21.9239 43.2625 20.0075 41.9496C19.5731 41.6454 19.2617 41.2924 19.0401 40.831C18.6432 40.0154 18.7537 40.2601 16.0787 26.4122C15.7384 24.7303 15.3774 23.1701 14.9448 21.7359C15.4005 21.7451 16.1055 21.7396 17.0489 21.7198C18.7809 21.6874 21.286 21.6407 24.3812 21.583C26.9391 21.5368 29.9059 21.5131 33.1675 21.5056C33.0635 23.0979 33.1625 24.849 33.6099 26.7221C35.351 33.7699 41.1525 37.1776 47.3965 36.7577C51.9273 36.4744 56.2649 33.9942 58.7776 30.421C58.8239 30.3554 58.8631 30.2845 58.9083 30.218C58.4045 33.0325 57.3143 36.8057 56.0962 39.0979Z" fill="#04BB21"/>
</svg>
