<svg width="63" height="63" viewBox="0 0 63 63" fill="none" xmlns="http://www.w3.org/2000/svg">
<path d="M14.4469 12.115C14.2644 12.3739 14.0348 12.7714 13.758 13.38C12.8555 15.4076 12.0516 18.4308 12.7262 20.5482C12.8921 21.0451 13.2362 21.6368 13.8459 22.0103C13.9122 22.1457 13.9982 22.3004 14.1233 22.4938C14.7389 23.405 16.1583 25.082 19.3561 27.7398C21.0993 29.2075 23.9363 31.325 26.1874 33.2327C27.3199 34.1823 28.2899 35.098 29.0096 35.7577C29.0832 35.828 29.1526 35.8936 29.2209 35.9578C29.12 35.9607 29.0157 35.9638 28.9154 35.9667C28.6587 35.9729 28.4041 35.9792 28.1515 35.9853C27.908 35.9838 27.661 35.9789 27.409 35.9682C26.8984 35.9437 26.396 35.9195 25.9016 35.8956C23.8957 35.7983 21.9726 35.7255 20.1027 36.0352C19.1732 36.2078 18.2229 36.4482 17.3585 37.0905C16.9335 37.409 16.5503 37.857 16.3293 38.3725C16.1256 38.8798 16.0404 39.344 16.0024 39.7573C15.752 42.1874 16.3717 45.7027 16.5118 47.6589C17.0909 55.1976 17.0867 56.2313 17.2309 57.8215C17.3105 58.5612 17.5205 59.0705 17.7189 59.3758C17.9196 59.6839 18.0923 59.8001 18.1978 59.8426C18.3082 59.8826 18.3636 59.8493 18.4142 59.8076C18.5304 59.7185 18.5348 59.6167 18.3955 59.0766C18.3371 58.8021 18.2679 58.4011 18.2926 57.7768C18.4803 54.5786 18.3518 50.7699 18.1792 47.5475C18.106 45.9518 17.832 44.1244 17.7552 42.0006C17.7332 41.3284 17.7278 40.6249 17.8056 39.9646C17.8361 39.6267 17.9161 39.3315 18.0014 39.1122C18.0935 38.9079 18.2424 38.7274 18.4668 38.5599C18.9138 38.2208 19.6377 37.9995 20.4145 37.8709C22.4476 37.5441 24.9631 37.7409 27.3353 37.8618C27.5982 37.8734 27.8707 37.8799 28.1509 37.8819C28.4218 37.876 28.6949 37.87 28.9701 37.8639C29.0138 37.8627 29.0596 37.8614 29.1035 37.8602C28.4357 42.4207 28.3909 41.9596 28.3923 42.6227C28.3964 42.9583 28.439 43.3922 28.738 43.8207C28.88 44.0204 29.0656 44.1916 29.2811 44.3151C29.5052 44.4424 29.7285 44.5074 29.913 44.5445C30.3496 44.6259 33.2448 44.8187 33.7251 44.7557C33.8321 44.7416 33.9368 44.7196 34.0376 44.6889C34.4417 44.5654 34.7714 44.3003 34.9845 43.9844C35.2232 43.6239 35.2887 43.3734 35.3631 43.1256C35.7369 41.7248 36.1746 39.2471 35.7834 37.6609C44.0317 37.4047 43.7403 37.3888 43.9694 37.4401C44.0726 37.4592 44.1108 37.484 44.1282 37.4959C44.1457 37.508 44.1831 37.5448 44.2306 37.6464C45.4726 40.0877 45.7381 51.9747 45.496 56.3134C45.4589 56.6673 45.3841 57.0055 45.2531 57.315C44.9768 57.9235 44.4809 58.4258 43.834 58.7846C43.1981 59.1548 42.4487 59.3918 41.6935 59.5752C39.8571 59.9994 30.1257 61.0474 22.1959 60.7631C21.348 60.727 20.6256 60.6709 20.0574 60.5446C18.8987 60.3159 18.4738 59.7436 18.4142 59.8076C18.3961 59.8209 18.4619 59.9887 18.7017 60.2184C18.9364 60.4509 19.3606 60.7255 19.9564 60.9139C20.5497 61.1113 21.2968 61.2301 22.1524 61.3266C29.7783 62.1334 40.0903 61.2706 41.9837 60.8874C42.8243 60.7047 43.6876 60.4657 44.5177 60.0142C45.3451 59.5846 46.1411 58.8682 46.587 57.9246C47.3466 56.2645 47.5229 43.3436 46.2673 38.2466C46.1594 37.827 46.1206 37.4596 45.8837 36.897C45.7644 36.6281 45.5699 36.3171 45.2695 36.0758C44.9705 35.8329 44.6219 35.705 44.3312 35.6478C43.7789 35.5452 44.1931 35.553 35.0094 35.7965C35.7166 35.1741 36.6986 34.2448 37.8094 33.2329C42.3567 29.0759 45.3014 27.1322 47.1089 24.1258C47.724 23.0976 47.9773 22.298 48.0742 21.7531C48.1019 21.6196 48.1185 21.501 48.1276 21.3946C48.4319 21.276 48.7262 21.1212 48.9921 20.9108C49.402 20.5911 49.7331 20.175 49.9631 19.7334C50.197 19.2902 50.3217 18.8292 50.4054 18.3768C51.6434 11.311 43.0139 2.36621 34.2086 1.51315C30.994 1.05503 27.8568 1.54904 25.2459 2.49012C22.6291 3.45923 20.5073 4.85729 18.9588 6.25866C17.4067 7.66629 16.4059 9.04795 15.8183 10.0461C15.5138 10.5409 15.3253 10.951 15.2066 11.2326C15.0857 11.5128 15.0368 11.6659 15.066 11.6809C15.0951 11.696 15.2016 11.5727 15.3766 11.3266C15.5495 11.0793 15.7886 10.7077 16.1372 10.2584C16.813 9.35044 17.8753 8.08898 19.4389 6.82149C20.999 5.55923 23.0834 4.31919 25.5916 3.49501C27.2394 2.9716 29.0735 2.64086 30.9834 2.6159C26.0156 6.60561 24.0414 13.9426 25.0074 17.2489C25.0336 17.3501 25.0599 17.4364 25.0863 17.5161C18.7156 18.3742 17.6427 20.431 15.6118 20.7153C15.2115 20.7799 14.8977 20.7397 14.6956 20.6283C14.4905 20.523 14.3226 20.3094 14.206 20.0062C13.5892 18.3726 14.3052 15.4168 14.7566 13.7432C14.9263 13.1331 15.0473 12.7138 15.1199 12.4221C15.2662 11.8382 15.1856 11.742 15.066 11.6809C14.9521 11.6227 14.8127 11.5984 14.4469 12.115ZM33.5337 42.6198C33.5016 42.7511 33.4321 42.8921 33.4356 42.8816C33.4356 42.8816 33.4358 42.8807 33.4367 42.8848L33.4364 42.8866C33.4439 42.8866 33.4299 42.8893 33.3916 42.8912C33.3714 42.8924 30.2502 42.9002 30.1941 42.8945L30.0682 42.8793C30.0487 42.8762 30.0302 42.8668 30.0112 42.8549C29.9824 42.8543 29.9215 42.7369 29.8993 42.5501C29.8739 42.3679 29.8798 42.139 29.895 41.8982C29.9837 40.5894 29.9762 39.1202 29.7363 37.8422C30.5607 37.8187 31.3985 37.7949 32.2628 37.7704C32.9497 37.749 33.6664 37.7268 34.4051 37.7037C34.3367 38.3222 34.1381 40.4943 33.5337 42.6198ZM48.6161 16.0052C48.7204 16.7143 48.74 17.4304 48.6196 18.052C48.3943 19.3416 47.5825 19.9165 46.4039 19.7874C45.8171 19.7351 45.1779 19.5371 44.5178 19.3282C43.8404 19.1165 43.1656 18.9146 42.5079 18.7382C41.289 18.4106 40.1183 18.1533 39.0092 17.9472C39.0252 17.8981 39.0412 17.8546 39.0572 17.7981C39.8903 15.112 38.883 7.95867 34.3298 3.35316C34.0737 3.10969 33.8547 2.92318 33.681 2.79774C33.7937 2.8146 33.9059 2.82417 34.0188 2.84354C40.2831 3.60946 47.7939 9.30029 48.6161 16.0052ZM26.3498 17.1847C26.3708 16.9727 26.4181 16.7106 26.4497 16.3886C26.9894 10.2712 28.8118 6.98028 31.8741 2.85049C31.9347 2.77552 31.992 2.70363 32.0462 2.6347C32.4491 2.65441 32.8542 2.69087 33.2611 2.74089C33.2784 2.9217 33.4587 3.29414 33.7394 3.79898C37.0366 10.1976 37.0433 11.7278 37.7158 17.7181C37.7164 17.723 37.7174 17.7264 37.7181 17.7313C33.7889 17.1171 30.2351 17.0703 27.1246 17.3029C26.8513 17.3224 26.5851 17.3497 26.3172 17.3751C26.3285 17.3143 26.3401 17.2561 26.3498 17.1847ZM17.6225 21.8445C19.149 21.1934 21.0701 19.5539 27.2598 19.1599C30.5035 18.9423 34.2411 19.0208 38.403 19.7665C39.5421 19.9713 40.7556 20.2315 42.0205 20.565C42.6545 20.7318 43.2941 20.9191 43.9563 21.1209C44.6322 21.3254 45.3706 21.5663 46.2423 21.6424C46.3615 21.6522 46.484 21.6574 46.6083 21.659C44.3737 25.6207 41.1627 27.2619 36.844 32.298C35.6243 33.7155 34.657 35.0292 34.1856 35.8183C33.5048 35.8363 32.8444 35.8538 32.2082 35.8707C31.4469 35.8929 30.707 35.9144 29.9768 35.9357C29.8667 35.743 29.7337 35.5248 29.5736 35.2789C27.3809 32.0564 23.7045 28.9184 20.5766 26.2829C18.3199 24.406 16.9322 23.1467 16.0126 22.341C16.5816 22.2499 17.1067 22.0654 17.6225 21.8445Z" fill="#04BB21"/>
</svg>
