<svg width="29" height="29" viewBox="0 0 29 29" fill="none" xmlns="http://www.w3.org/2000/svg">
<g clip-path="url(#clip0_111_31812)">
<path fill-rule="evenodd" clip-rule="evenodd" d="M1.98361 12.4031H27.0164C27.5725 12.4031 28.1059 12.624 28.4991 13.0173C28.8924 13.4105 29.1133 13.9439 29.1133 14.5C29.1133 15.0561 28.8924 15.5895 28.4991 15.9827C28.1059 16.376 27.5725 16.5969 27.0164 16.5969H1.98361C1.42748 16.5969 0.894128 16.376 0.500884 15.9827C0.107641 15.5895 -0.113281 15.0561 -0.113281 14.5C-0.113281 13.9439 0.107641 13.4105 0.500884 13.0173C0.894128 12.624 1.42748 12.4031 1.98361 12.4031ZM27.0164 14.2156H1.98361C1.90817 14.2156 1.83582 14.2456 1.78248 14.2989C1.72913 14.3523 1.69916 14.4246 1.69916 14.5001C1.69916 14.5755 1.72913 14.6478 1.78248 14.7012C1.83582 14.7545 1.90817 14.7845 1.98361 14.7845H27.0164C27.0918 14.7845 27.1642 14.7545 27.2175 14.7012C27.2709 14.6478 27.3008 14.5755 27.3008 14.5001C27.3008 14.4246 27.2709 14.3523 27.2175 14.2989C27.1642 14.2456 27.0918 14.2156 27.0164 14.2156ZM1.98361 4.30225H27.0164C27.5706 4.30513 28.1012 4.52732 28.4921 4.92026C28.883 5.31319 29.1024 5.84491 29.1024 6.39917C29.1024 6.95342 28.883 7.48514 28.4921 7.87808C28.1012 8.27101 27.5706 8.49321 27.0164 8.49609H1.98361C1.42936 8.49321 0.898794 8.27101 0.507894 7.87808C0.116995 7.48514 -0.10244 6.95342 -0.10244 6.39917C-0.10244 5.84491 0.116995 5.31319 0.507894 4.92026C0.898794 4.52732 1.42936 4.30513 1.98361 4.30225ZM27.0164 6.11475H1.98361C1.90887 6.1158 1.83755 6.14623 1.78508 6.19946C1.7326 6.25268 1.70318 6.32442 1.70318 6.39917C1.70318 6.47391 1.7326 6.54565 1.78508 6.59888C1.83755 6.6521 1.90887 6.68253 1.98361 6.68359H27.0164C27.0911 6.68253 27.1624 6.6521 27.2149 6.59888C27.2674 6.54565 27.2968 6.47391 27.2968 6.39917C27.2968 6.32442 27.2674 6.25268 27.2149 6.19946C27.1624 6.14623 27.0911 6.1158 27.0164 6.11475ZM1.98361 20.5039H27.0164C27.5706 20.5068 28.1012 20.729 28.4921 21.1219C28.883 21.5148 29.1024 22.0466 29.1024 22.6008C29.1024 23.1551 28.883 23.6868 28.4921 24.0797C28.1012 24.4727 27.5706 24.6949 27.0164 24.6977H1.98361C1.42936 24.6949 0.898794 24.4727 0.507894 24.0797C0.116995 23.6868 -0.10244 23.1551 -0.10244 22.6008C-0.10244 22.0466 0.116995 21.5148 0.507894 21.1219C0.898794 20.729 1.42936 20.5068 1.98361 20.5039ZM27.0164 22.3164H1.98361C1.90887 22.3175 1.83755 22.3479 1.78508 22.4011C1.7326 22.4543 1.70318 22.5261 1.70318 22.6008C1.70318 22.6756 1.7326 22.7473 1.78508 22.8005C1.83755 22.8538 1.90887 22.8842 1.98361 22.8852H27.0164C27.0911 22.8842 27.1624 22.8538 27.2149 22.8005C27.2674 22.7473 27.2968 22.6756 27.2968 22.6008C27.2968 22.5261 27.2674 22.4543 27.2149 22.4011C27.1624 22.3479 27.0911 22.3175 27.0164 22.3164ZM1.98361 6.68359H27.0164C27.0911 6.68253 27.1624 6.6521 27.2149 6.59888C27.2674 6.54565 27.2968 6.47391 27.2968 6.39917C27.2968 6.32442 27.2674 6.25268 27.2149 6.19946C27.1624 6.14623 27.0911 6.1158 27.0164 6.11475H1.98361C1.90887 6.1158 1.83755 6.14623 1.78508 6.19946C1.7326 6.25268 1.70318 6.32442 1.70318 6.39917C1.70318 6.47391 1.7326 6.54565 1.78508 6.59888C1.83755 6.6521 1.90887 6.68253 1.98361 6.68359ZM27.0164 14.2155H1.98361C1.90817 14.2155 1.83582 14.2456 1.78248 14.2989C1.72913 14.3523 1.69916 14.4246 1.69916 14.5C1.69916 14.5754 1.72913 14.6478 1.78248 14.7011C1.83582 14.7545 1.90817 14.7844 1.98361 14.7844H27.0164C27.0918 14.7844 27.1642 14.7545 27.2175 14.7011C27.2709 14.6478 27.3008 14.5754 27.3008 14.5C27.3008 14.4246 27.2709 14.3523 27.2175 14.2989C27.1642 14.2456 27.0918 14.2155 27.0164 14.2155ZM27.0164 22.3164H1.98361C1.90887 22.3175 1.83755 22.3479 1.78508 22.4011C1.7326 22.4543 1.70318 22.5261 1.70318 22.6008C1.70318 22.6756 1.7326 22.7473 1.78508 22.8005C1.83755 22.8538 1.90887 22.8842 1.98361 22.8852H27.0164C27.0911 22.8842 27.1624 22.8538 27.2149 22.8005C27.2674 22.7473 27.2968 22.6756 27.2968 22.6008C27.2968 22.5261 27.2674 22.4543 27.2149 22.4011C27.1624 22.3479 27.0911 22.3175 27.0164 22.3164Z" fill="black"/>
</g>
<defs>
<clipPath id="clip0_111_31812">
<rect width="29" height="29" fill="white"/>
</clipPath>
</defs>
</svg>
