<svg width="27" height="27" viewBox="0 0 27 27" fill="none" xmlns="http://www.w3.org/2000/svg">
<g clip-path="url(#clip0_209_30948)">
<path d="M13.5 27C6.05623 27 0 20.9438 0 13.5C0 6.05623 6.05623 0 13.5 0C20.9438 0 27 6.05623 27 13.5C27 20.9438 20.9438 27 13.5 27ZM13.5 1.6875C6.98646 1.6875 1.6875 6.98646 1.6875 13.5C1.6875 20.0135 6.98646 25.3125 13.5 25.3125C20.0135 25.3125 25.3125 20.0135 25.3125 13.5C25.3125 6.98646 20.0135 1.6875 13.5 1.6875ZM11.5653 18.3153L20.0028 9.87778C20.3325 9.54809 20.3325 9.0142 20.0028 8.68472C19.6731 8.35523 19.1392 8.35502 18.8097 8.68472L10.9688 16.5257L8.19028 13.7472C7.86059 13.4175 7.3267 13.4175 6.99722 13.7472C6.66773 14.0769 6.66752 14.6108 6.99722 14.9403L10.3722 18.3153C10.537 18.48 10.753 18.5625 10.9688 18.5625C11.1845 18.5625 11.4005 18.48 11.5653 18.3153Z" fill="#04BB21"/>
</g>
<defs>
<clipPath id="clip0_209_30948">
<rect width="27" height="27" fill="white"/>
</clipPath>
</defs>
</svg>
