<svg width="15" height="15" viewBox="0 0 15 15" fill="none" xmlns="http://www.w3.org/2000/svg">
<path d="M5.5266e-05 7.5041C-0.00118259 7.29135 0.0609655 7.08305 0.178575 6.90576C0.296185 6.72847 0.463927 6.59022 0.660417 6.50864C0.856906 6.42706 1.07324 6.40583 1.28184 6.44768C1.49043 6.48953 1.68184 6.59255 1.83166 6.74361L7.49786 12.4205L13.1641 6.74361C13.369 6.56813 13.6325 6.47644 13.9021 6.48685C14.1717 6.49727 14.4274 6.60902 14.6182 6.79978C14.8089 6.99054 14.9207 7.24625 14.9311 7.51583C14.9415 7.7854 14.8498 8.04898 14.6743 8.25388L8.24764 14.6806C8.04695 14.8801 7.77548 14.992 7.4925 14.992C7.20953 14.992 6.93805 14.8801 6.73737 14.6806L0.310679 8.25388C0.112797 8.05437 0.00123781 7.7851 5.5266e-05 7.5041Z" fill="black"/>
<path d="M1.23507e-05 1.07734C-0.00122456 0.864594 0.0609235 0.656295 0.178533 0.479004C0.296143 0.301714 0.463884 0.163464 0.660374 0.0818806C0.856864 0.000297275 1.0732 -0.0209231 1.28179 0.020925C1.49039 0.0627731 1.6818 0.165794 1.83162 0.316852L7.49781 5.99376L13.164 0.316852C13.3657 0.115158 13.6393 0.00184657 13.9245 0.00184659C14.2097 0.0018466 14.4833 0.115158 14.685 0.316853C14.8867 0.518547 15 0.792104 15 1.07734C15 1.36258 14.8867 1.63614 14.685 1.83784L8.25831 8.26452C8.05762 8.46402 7.78614 8.576 7.50317 8.576C7.2202 8.576 6.94872 8.46402 6.74803 8.26452L0.321346 1.83783C0.220138 1.73863 0.139625 1.62034 0.0844659 1.48979C0.0293064 1.35925 0.000600762 1.21906 1.23507e-05 1.07734Z" fill="black"/>
</svg>
