<svg width="24" height="24" viewBox="0 0 24 24" fill="none" xmlns="http://www.w3.org/2000/svg">
<path d="M18.126 14.269C16.4579 14.269 15.1008 15.6261 15.1008 17.2943C15.1008 18.9624 16.4579 20.3195 18.126 20.3195C19.7945 20.3195 21.1513 18.9624 21.1513 17.2943C21.1513 15.6261 19.7942 14.269 18.126 14.269ZM18.126 18.8069C17.2919 18.8069 16.6134 18.1284 16.6134 17.2943C16.6134 16.4601 17.2919 15.7817 18.126 15.7817C18.9602 15.7817 19.6387 16.4601 19.6387 17.2943C19.6387 18.1285 18.9602 18.8069 18.126 18.8069Z" fill="black"/>
<path d="M7.78993 14.269C6.12179 14.269 4.76471 15.6261 4.76471 17.2943C4.76471 18.9624 6.12179 20.3195 7.78993 20.3195C9.45807 20.3195 10.8151 18.9624 10.8151 17.2943C10.8151 15.6261 9.45807 14.269 7.78993 14.269ZM7.78993 18.8069C6.95574 18.8069 6.27732 18.1284 6.27732 17.2943C6.27732 16.4601 6.95574 15.7817 7.78993 15.7817C8.62388 15.7817 9.30254 16.4601 9.30254 17.2943C9.30254 18.1285 8.62412 18.8069 7.78993 18.8069Z" fill="black"/>
<path d="M20.1633 5.60984C20.0347 5.35447 19.7733 5.19336 19.4874 5.19336H15.5042V6.70597H19.021L21.0804 10.8021L22.4322 10.1224L20.1633 5.60984Z" fill="black"/>
<path d="M15.8571 16.563H10.1345V18.0756H15.8571V16.563Z" fill="black"/>
<path d="M5.52098 16.563H2.89916C2.48141 16.563 2.14288 16.9016 2.14288 17.3193C2.14288 17.737 2.48146 18.0756 2.89916 18.0756H5.52102C5.93877 18.0756 6.27731 17.737 6.27731 17.3193C6.27731 16.9015 5.93873 16.563 5.52098 16.563Z" fill="black"/>
<path d="M23.8412 11.9395L22.3536 10.0235C22.2106 9.83896 21.99 9.73105 21.7563 9.73105H16.2605V4.43695C16.2605 4.0192 15.9219 3.68066 15.5042 3.68066H2.89916C2.48141 3.68066 2.14288 4.01924 2.14288 4.43695C2.14288 4.85465 2.48146 5.19323 2.89916 5.19323H14.7479V10.4873C14.7479 10.9051 15.0865 11.2436 15.5042 11.2436H21.386L22.4874 12.6624V16.5629H20.3949C19.9772 16.5629 19.6386 16.9015 19.6386 17.3192C19.6386 17.737 19.9772 18.0755 20.3949 18.0755H23.2437C23.6614 18.0755 23.9999 17.7369 24 17.3192V12.4034C24 12.2354 23.944 12.0721 23.8412 11.9395Z" fill="black"/>
<path d="M5.47059 12.731H1.99157C1.57382 12.731 1.23529 13.0695 1.23529 13.4872C1.23529 13.905 1.57387 14.2435 1.99157 14.2435H5.47054C5.88829 14.2435 6.22682 13.9049 6.22682 13.4872C6.22687 13.0695 5.88829 12.731 5.47059 12.731Z" fill="black"/>
<path d="M7.21008 9.75635H0.756281C0.338578 9.75635 0 10.0949 0 10.5127C0 10.9304 0.338578 11.269 0.756281 11.269H7.21008C7.62783 11.269 7.96636 10.9304 7.96636 10.5127C7.96636 10.095 7.62783 9.75635 7.21008 9.75635Z" fill="black"/>
<path d="M8.44537 6.78174H1.99157C1.57382 6.78174 1.23529 7.12032 1.23529 7.53802C1.23529 7.95577 1.57387 8.2943 1.99157 8.2943H8.44537C8.86312 8.2943 9.20165 7.95572 9.20165 7.53802C9.2017 7.12032 8.86312 6.78174 8.44537 6.78174Z" fill="black"/>
</svg>
