<svg width="25" height="25" viewBox="0 0 25 25" fill="none" xmlns="http://www.w3.org/2000/svg">
<path d="M12.501 4.66028C14.9479 2.49006 18.7292 2.56209 21.0864 4.8949C23.4427 7.22874 23.5239 10.9456 21.3323 13.37L12.4989 22.1085L3.66769 13.37C1.47603 10.9456 1.55832 7.22257 3.91353 4.8949C6.2729 2.56518 10.0469 2.48697 12.501 4.66028V4.66028ZM19.6114 6.34892C18.0489 4.80332 15.5281 4.74055 13.8927 6.19148L12.5021 7.42426L11.1104 6.19251C9.46978 4.73952 6.95415 4.80332 5.38749 6.35098C3.8354 7.88423 3.75728 10.3385 5.18749 11.9602L12.5 19.1953L19.8125 11.9613C21.2437 10.3385 21.1656 7.88732 19.6114 6.34892V6.34892Z" fill="#474A51"/>
</svg>
