<svg width="15" height="15" viewBox="0 0 15 15" fill="none" xmlns="http://www.w3.org/2000/svg">
<g clip-path="url(#clip0_202_30704)">
<path d="M0.141959 14.1839L4.01472 10.3731C3.00057 9.27122 2.37744 7.81402 2.37744 6.21051C2.37793 2.78032 5.20327 0 8.68878 0C12.1743 0 14.9996 2.78032 14.9996 6.21051C14.9996 9.6407 12.1743 12.421 8.68878 12.421C7.1828 12.421 5.80155 11.9001 4.71659 11.0341L0.828811 14.86C0.639378 15.0466 0.331834 15.0466 0.142401 14.86C-0.0474739 14.6734 -0.0474739 14.3706 0.141959 14.1839ZM8.68878 11.4655C11.6379 11.4655 14.0286 9.11277 14.0286 6.21051C14.0286 3.30826 11.6379 0.955524 8.68878 0.955524C5.73964 0.955524 3.34894 3.30826 3.34894 6.21051C3.34894 9.11277 5.73964 11.4655 8.68878 11.4655Z" fill="white"/>
</g>
<defs>
<clipPath id="clip0_202_30704">
<rect width="15" height="15" fill="white" transform="matrix(-1 0 0 1 15 0)"/>
</clipPath>
</defs>
</svg>
