<svg width="25" height="25" viewBox="0 0 25 25" fill="none" xmlns="http://www.w3.org/2000/svg">
<path d="M4.16664 6.6003L0.788513 3.26418L2.26247 1.80811L5.63955 5.14525H21.5166C21.679 5.14524 21.8391 5.18272 21.9842 5.25471C22.1293 5.32669 22.2554 5.43118 22.3523 5.55984C22.4492 5.6885 22.5144 5.83777 22.5426 5.99573C22.5707 6.15369 22.5612 6.31597 22.5146 6.46961L20.0146 14.7019C19.9502 14.9139 19.8184 15.0998 19.6386 15.232C19.4589 15.3642 19.2407 15.4356 19.0166 15.4356H6.24997V17.4936H17.7083V19.5517H5.2083C4.93204 19.5517 4.66709 19.4433 4.47174 19.2503C4.27639 19.0573 4.16664 18.7956 4.16664 18.5226V6.6003ZM6.24997 7.20331V13.3775H18.2416L20.1166 7.20331H6.24997ZM5.72914 23.6678C5.31474 23.6678 4.91731 23.5052 4.62428 23.2157C4.33126 22.9262 4.16664 22.5336 4.16664 22.1243C4.16664 21.7149 4.33126 21.3223 4.62428 21.0328C4.91731 20.7433 5.31474 20.5807 5.72914 20.5807C6.14354 20.5807 6.54097 20.7433 6.83399 21.0328C7.12702 21.3223 7.29164 21.7149 7.29164 22.1243C7.29164 22.5336 7.12702 22.9262 6.83399 23.2157C6.54097 23.5052 6.14354 23.6678 5.72914 23.6678ZM18.2291 23.6678C17.8147 23.6678 17.4173 23.5052 17.1243 23.2157C16.8313 22.9262 16.6666 22.5336 16.6666 22.1243C16.6666 21.7149 16.8313 21.3223 17.1243 21.0328C17.4173 20.7433 17.8147 20.5807 18.2291 20.5807C18.6435 20.5807 19.041 20.7433 19.334 21.0328C19.627 21.3223 19.7916 21.7149 19.7916 22.1243C19.7916 22.5336 19.627 22.9262 19.334 23.2157C19.041 23.5052 18.6435 23.6678 18.2291 23.6678Z" fill="#474A51"/>
</svg>
