<svg aria-hidden="true" style="position: absolute; width: 0; height: 0; overflow: hidden;" version="1.1" xmlns="http://www.w3.org/2000/svg" xmlns:xlink="http://www.w3.org/1999/xlink">
<defs>
<symbol id="icon-add-cart" viewBox="0 0 32 32">
<path fill="#04bb21" style="fill: var(--color1, #04bb21)" d="M18.888 10.905c-0.024 0.373 4.114 0.547 4.995 0.555-0.057 1.078-0.247 4.374 0.359 4.389 0.611 0.015 0.578-3.351 0.573-4.394 0.965-0.022 2.809-0.133 3.742-0.386 0.473-0.135 0.479-0.257 0.466-0.389s-0.046-0.251-0.531-0.29c-0.574-0.054-2.108 0.031-3.689 0.106-0.036-1.773-0.152-3.703-0.34-3.707-0.19-0.005-0.402 1.963-0.525 3.748-3.463 0.164-5.041 0.202-5.052 0.369z"></path>
<path fill="#04bb21" style="fill: var(--color1, #04bb21)" d="M22.556 4.434c-0.517 0.11-0.79 0.207-0.783 0.236 0.008 0.036 0.297 0.004 0.807-0.042 5.592-0.268 8.752 4.497 7.527 8.456-0.202 0.671-0.526 1.306-0.94 1.872-1.144 1.562-3.11 2.665-5.15 2.772-2.524 0.143-5.226-1.141-6.027-4.38-0.788-3.162 0.282-6.871 3.553-8.416 0.239-0.129 0.246-0.197 0.23-0.262s-0.048-0.122-0.338-0.098c-1.52 0.051-4.075 2.041-4.541 5.838-1.681 0.048-3.209 0.106-4.523 0.178-1.573 0.080-2.844 0.175-3.722 0.251-0.493 0.046-0.856 0.084-1.084 0.115-0.011-0.037-0.022-0.076-0.033-0.113-0.246-0.781-0.533-1.482-0.866-2.089-1.36-2.545-3.685-3.663-5.286-3.508-0.486 0.061-0.509 0.142-0.504 0.204 0.006 0.071 0.052 0.118 0.496 0.172 3.906 0.593 5.22 4.13 5.922 7.967 1.208 6.549 1.216 6.926 1.522 7.567 0.168 0.364 0.464 0.708 0.806 0.941 0.533 0.358 1.117 0.514 1.687 0.617-0.254 0.155-0.482 0.367-0.648 0.628-0.47 0.713-0.422 1.755-0.147 2.395 0.769 1.727 2.043 2.196 3.262 1.801 1.196-0.372 1.796-1.589 1.451-2.662-0.108-0.35-0.23-0.497-0.314-0.563-0.085-0.066-0.146-0.047-0.208-0.022s-0.118 0.056-0.144 0.154c-0.074 0.269 0.291 1.809-1.062 2.189-1.013 0.299-1.639-0.285-2.125-1.227-0.196-0.392-0.313-1.139-0.029-1.65 0.172-0.32 0.483-0.555 0.834-0.649 0.352-0.097 0.729-0.061 1.055 0.052 0.321 0.126 0.6 0.302 0.816 0.473 0.422 0.354 0.588 0.688 0.655 0.659 0.056-0.015 0.013-0.419-0.386-0.921-0.084-0.098-0.184-0.199-0.295-0.298 0.804 0.081 1.634 0.145 2.494 0.185 1.695 0.079 3.624 0.074 5.691-0.083-0.043 0.054-0.084 0.109-0.121 0.167-0.616 0.935-0.257 2.002-0.255 2.026 0.036 0.124 0.060 0.255 0.109 0.369 0.776 1.742 2.025 2.201 3.262 1.801 1.192-0.371 1.798-1.585 1.451-2.662-0.108-0.35-0.23-0.497-0.314-0.563-0.085-0.066-0.146-0.047-0.208-0.022s-0.118 0.056-0.144 0.154c-0.027 0.097-0.013 0.262-0.006 0.547 0.002 0.803-0.283 1.425-1.056 1.642-1.012 0.299-1.643-0.294-2.125-1.227-0.044-0.089-0.060-0.183-0.094-0.275 0.007-0.024-0.549-1.635 0.899-2.024 1.424-0.393 2.448 1.218 2.526 1.184 0.097-0.027-0.079-0.82-0.954-1.437 0.336-0.047 0.677-0.1 1.031-0.18 1.417-0.318 2.345-0.989 3.070-2.399 0.851-1.647 1.653-4.586 1.737-7.511 0-0.031-0-0.063-0-0.094 0.865-4.984-3.696-9.045-8.462-8.233zM28.493 19.859c-0.606 1.153-1.308 1.658-2.485 1.912-0.543 0.12-1.129 0.18-1.698 0.252-2.516 0.293-5.052 0.393-7.746 0.267-1.112-0.052-5.429-0.316-6.402-0.983-0.221-0.154-0.379-0.334-0.491-0.568-0.202-0.414-0.145-0.29-1.504-7.324-0.173-0.854-0.356-1.647-0.576-2.375 0.231 0.005 0.59 0.002 1.069-0.008 0.88-0.016 2.152-0.040 3.724-0.069 1.299-0.023 2.806-0.036 4.463-0.039-0.053 0.809-0.003 1.698 0.225 2.65 0.884 3.58 3.831 5.311 7.003 5.097 2.301-0.144 4.505-1.404 5.781-3.219 0.024-0.033 0.043-0.069 0.066-0.103-0.256 1.43-0.81 3.346-1.428 4.51z"></path>
</symbol>
<symbol id="icon-air-balloon" viewBox="0 0 32 32">
<path fill="#04bb21" style="fill: var(--color1, #04bb21)" d="M7.338 6.154c-0.093 0.131-0.209 0.333-0.35 0.643-0.458 1.030-0.867 2.566-0.524 3.641 0.084 0.252 0.259 0.553 0.569 0.743 0.034 0.069 0.077 0.147 0.141 0.246 0.313 0.463 1.034 1.315 2.658 2.665 0.885 0.745 2.326 1.821 3.47 2.79 0.575 0.482 1.068 0.947 1.434 1.283 0.037 0.036 0.073 0.069 0.107 0.102-0.051 0.001-0.104 0.003-0.155 0.005-0.13 0.003-0.26 0.006-0.388 0.009-0.124-0.001-0.249-0.003-0.377-0.009-0.259-0.012-0.515-0.025-0.766-0.037-1.019-0.049-1.996-0.086-2.945 0.071-0.472 0.088-0.955 0.21-1.394 0.536-0.216 0.162-0.411 0.389-0.523 0.651-0.103 0.258-0.147 0.493-0.166 0.703-0.127 1.234 0.188 3.020 0.259 4.014 0.294 3.829 0.292 4.354 0.365 5.162 0.040 0.376 0.147 0.634 0.248 0.79 0.102 0.157 0.19 0.216 0.243 0.237 0.056 0.020 0.084 0.003 0.11-0.018 0.059-0.045 0.061-0.097-0.009-0.371-0.030-0.139-0.065-0.343-0.052-0.66 0.095-1.624 0.030-3.559-0.058-5.196-0.037-0.811-0.176-1.739-0.215-2.817-0.011-0.341-0.014-0.699 0.026-1.034 0.015-0.172 0.056-0.322 0.099-0.433 0.047-0.104 0.122-0.195 0.236-0.281 0.227-0.172 0.595-0.285 0.989-0.35 1.033-0.166 2.31-0.066 3.515-0.005 0.134 0.006 0.272 0.009 0.414 0.010 0.138-0.003 0.276-0.006 0.416-0.009 0.022-0.001 0.045-0.001 0.068-0.002-0.339 2.316-0.362 2.082-0.361 2.419 0.002 0.17 0.024 0.391 0.176 0.608 0.072 0.101 0.166 0.188 0.276 0.251 0.114 0.065 0.227 0.098 0.321 0.117 0.222 0.041 1.692 0.139 1.936 0.107 0.054-0.007 0.108-0.018 0.159-0.034 0.205-0.063 0.373-0.197 0.481-0.358 0.121-0.183 0.154-0.31 0.192-0.436 0.19-0.712 0.412-1.97 0.213-2.776 4.19-0.13 4.042-0.138 4.158-0.112 0.052 0.010 0.072 0.022 0.081 0.028s0.028 0.025 0.052 0.076c0.631 1.24 0.766 7.278 0.643 9.482-0.019 0.18-0.057 0.352-0.123 0.509-0.14 0.309-0.392 0.564-0.721 0.746-0.323 0.188-0.704 0.308-1.087 0.402-0.933 0.215-5.876 0.748-9.904 0.603-0.431-0.018-0.798-0.047-1.086-0.111-0.589-0.116-0.804-0.407-0.835-0.374-0.009 0.007 0.024 0.092 0.146 0.209 0.119 0.118 0.335 0.258 0.637 0.353 0.301 0.1 0.681 0.161 1.115 0.21 3.873 0.41 9.111-0.028 10.073-0.223 0.427-0.093 0.865-0.214 1.287-0.444 0.42-0.218 0.825-0.582 1.051-1.061 0.386-0.843 0.475-7.406-0.162-9.995-0.055-0.213-0.075-0.4-0.195-0.686-0.061-0.137-0.159-0.295-0.312-0.417s-0.329-0.188-0.477-0.217c-0.281-0.052-0.070-0.048-4.735 0.076 0.359-0.316 0.858-0.788 1.422-1.302 2.31-2.111 3.805-3.099 4.724-4.626 0.312-0.522 0.441-0.928 0.49-1.205 0.014-0.068 0.023-0.128 0.027-0.182 0.155-0.060 0.304-0.139 0.439-0.246 0.208-0.162 0.376-0.374 0.493-0.598 0.119-0.225 0.182-0.459 0.225-0.689 0.629-3.589-3.754-8.132-8.227-8.566-1.633-0.233-3.226 0.018-4.552 0.496-1.329 0.492-2.407 1.202-3.193 1.914-0.788 0.715-1.297 1.417-1.595 1.924-0.155 0.251-0.25 0.46-0.311 0.603-0.061 0.142-0.086 0.22-0.071 0.228s0.069-0.055 0.158-0.18c0.088-0.126 0.209-0.314 0.386-0.543 0.343-0.461 0.883-1.102 1.677-1.746 0.792-0.641 1.851-1.271 3.125-1.69 0.837-0.266 1.769-0.434 2.739-0.447-2.523 2.027-3.526 5.753-3.035 7.433 0.013 0.051 0.027 0.095 0.040 0.136-3.236 0.436-3.781 1.481-4.812 1.625-0.203 0.033-0.363 0.012-0.465-0.044-0.104-0.053-0.189-0.162-0.249-0.316-0.313-0.83 0.050-2.331 0.28-3.181 0.086-0.31 0.148-0.523 0.185-0.671 0.074-0.297 0.033-0.345-0.027-0.376-0.058-0.030-0.129-0.042-0.314 0.221zM17.033 21.648c-0.016 0.067-0.052 0.138-0.050 0.133 0 0 0-0 0.001 0.002l-0 0.001c0.004 0-0.003 0.001-0.023 0.002-0.010 0.001-1.596 0.005-1.624 0.002l-0.064-0.008c-0.010-0.002-0.019-0.006-0.029-0.012-0.015-0-0.046-0.060-0.057-0.155-0.013-0.093-0.010-0.209-0.002-0.331 0.045-0.665 0.041-1.411-0.081-2.060 0.419-0.012 0.844-0.024 1.283-0.036 0.349-0.011 0.713-0.022 1.088-0.034-0.035 0.314-0.136 1.417-0.443 2.497zM24.694 8.13c0.053 0.36 0.063 0.724 0.002 1.040-0.114 0.655-0.527 0.947-1.125 0.881-0.298-0.027-0.623-0.127-0.958-0.233-0.344-0.108-0.687-0.21-1.021-0.3-0.619-0.166-1.214-0.297-1.777-0.402 0.008-0.025 0.016-0.047 0.024-0.076 0.423-1.364-0.088-4.998-2.401-7.337-0.13-0.124-0.241-0.218-0.33-0.282 0.057 0.009 0.114 0.013 0.172 0.023 3.182 0.389 6.997 3.28 7.415 6.685zM13.384 8.729c0.011-0.108 0.035-0.241 0.051-0.404 0.274-3.107 1.2-4.779 2.755-6.877 0.031-0.038 0.060-0.075 0.087-0.11 0.205 0.010 0.41 0.029 0.617 0.054 0.009 0.092 0.1 0.281 0.243 0.537 1.675 3.25 1.678 4.027 2.020 7.070 0 0.002 0.001 0.004 0.001 0.007-1.996-0.312-3.801-0.336-5.381-0.218-0.139 0.010-0.274 0.024-0.41 0.037 0.006-0.031 0.012-0.060 0.017-0.097zM8.951 11.096c0.775-0.331 1.751-1.163 4.895-1.364 1.648-0.111 3.546-0.071 5.66 0.308 0.579 0.104 1.195 0.236 1.837 0.406 0.322 0.085 0.647 0.18 0.983 0.282 0.343 0.104 0.718 0.226 1.161 0.265 0.061 0.005 0.123 0.008 0.186 0.008-1.135 2.012-2.766 2.846-4.96 5.404-0.62 0.72-1.111 1.387-1.35 1.788-0.346 0.009-0.681 0.018-1.004 0.027-0.387 0.011-0.762 0.022-1.133 0.033-0.056-0.098-0.123-0.209-0.205-0.334-1.114-1.637-2.981-3.231-4.57-4.569-1.146-0.953-1.851-1.593-2.318-2.002 0.289-0.046 0.556-0.14 0.818-0.252z"></path>
</symbol>
<symbol id="icon-badge" viewBox="0 0 32 32">
<path fill="#04bb21" style="fill: var(--color1, #04bb21)" d="M6.718 10.805c-0.102 0.061-0.181 0.097-0.244 0.121-0.188-0.041-0.31-0.034-0.326 0.012-0.053 0.126 0.573 0.493 1.149 1.106 1.352 1.417 1.214 2.263 0.925 3.13-0.108 0.302-0.192 0.519-0.23 0.677-0.080 0.316 0.014 0.39 0.13 0.457 0.082 0.047 0.163 0.086 0.288 0.018 0.077 0.034 0.19 0.069 0.328 0.104 0.715 0.19 1.891 0.39 2.745 1.625 0.086 0.124 0.156 0.244 0.216 0.359-0.217 0.27-0.613 0.849-1.097 1.663-1.193 1.991-3.132 5.822-3.289 6.182-0.060 0.141-0.113 0.296-0.144 0.473-0.029 0.176-0.033 0.382 0.034 0.585 0.063 0.201 0.193 0.388 0.354 0.518 0.16 0.132 0.34 0.211 0.514 0.259 1.104 0.293 1.881-0.415 2.586-0.717 0.733-0.323 0.841-0.071 1.011 0.736 0.236 1.121-0.024 1.444 0.071 2.187 0.173 1.25 1.465 1.718 2.198 1.013 0.331-0.312 0.194 0.166 2.836-7.363 0.535 0.979 3.632 6.041 4.119 6.572 0.184 0.2 0.392 0.395 0.666 0.544 0.264 0.152 0.632 0.243 0.986 0.165 0.555-0.106 1.045-0.608 1.124-1.501 0.069-0.889-0.324-1.689 0.717-2.045 0.356-0.126 0.738-0.134 1.139-0.086 0.399 0.046 0.804 0.14 1.215 0.214 1.962 0.345 2.539-1.009 1.94-2.344-0.488-1.045-2.566-4.185-4.333-6.091-0.648-0.686-0.918-0.873-1.054-0.895 0.135-0.186 0.31-0.388 0.53-0.571 0.289-0.238 0.646-0.447 1.004-0.58 0.479-0.192 0.94-0.244 1.201-0.297 0.089 0.041 0.16 0.015 0.23-0.017 0.123-0.055 0.221-0.119 0.185-0.442-0.016-0.162-0.063-0.39-0.122-0.722-0.218-1.352-0.18-2.409 0.937-3.341 0.644-0.55 1.38-0.752 1.354-0.89-0.004-0.026-0.044-0.048-0.11-0.062 0.011-0.023 0.020-0.047 0.028-0.071 0.044-0.129 0.058-0.242-0.193-0.439-0.124-0.1-0.313-0.228-0.57-0.434-1.031-0.863-1.59-1.971-1.406-3.298 0.093-0.77 0.449-1.357 0.448-1.536 0.163-0.102 0.28-0.199 0.365-0.28 0.295-0.296 0.22-0.409 0.143-0.512-0.082-0.111-0.165-0.182-0.506-0.066-0.171 0.053-0.409 0.157-0.759 0.255-1.537 0.406-2.677-0.434-3.214-1.783-0.183-0.451-0.288-0.903-0.371-1.234 0.072-0.086 0.129-0.162 0.17-0.226 0.181-0.288 0.105-0.384 0.014-0.481s-0.185-0.174-0.477-0.020c-0.146 0.075-0.341 0.209-0.613 0.391-0.273 0.176-0.625 0.411-1.12 0.538-1.191 0.292-2.391-0.627-3.408-1.123 0.049-0.173 0.075-0.312 0.086-0.418 0.031-0.341-0.080-0.392-0.205-0.437s-0.243-0.071-0.436 0.201c-0.097 0.134-0.21 0.345-0.371 0.635-0.677 1.177-1.444 1.789-2.843 1.519-0.591-0.107-1.047-0.386-1.293-0.5-0.064-0.196-0.138-0.335-0.202-0.433-0.204-0.288-0.327-0.236-0.444-0.182-0.124 0.057-0.216 0.123-0.198 0.413 0.003 0.146 0.036 0.348 0.046 0.64 0.008 0.288 0.004 0.677-0.172 1.125-0.586 1.537-2.175 1.426-2.531 1.462-0.175 0.014-0.31 0.043-0.391 0.078-0.111-0.082-0.195-0.058-0.281-0.024-0.124 0.048-0.231 0.106-0.193 0.445 0.018 0.17 0.074 0.409 0.163 0.749 0.437 1.736 0.534 3.435-1.046 4.292zM13.279 30.606c-0.142 0.131-0.313 0.068-0.442-0.073-0.087-0.096-0.126-0.183-0.154-0.358-0.070-0.473 0.152-1.119-0.116-2.26-0.032-0.138-0.069-0.277-0.112-0.413-0.193-0.596-0.482-1.089-1.147-1.138-0.402-0.030-0.731 0.096-1.008 0.221-0.746 0.345-1.308 0.908-2.026 0.737-0.191-0.047-0.295-0.133-0.338-0.247-0.16-0.372 2.982-6.79 2.995-6.817 0.38-0.783 0.681-1.368 0.836-1.7 0.097 0.212 0.158 0.404 0.205 0.565 0.078 0.282 0.112 0.481 0.152 0.62 0.072 0.278 0.178 0.314 0.313 0.331 0.128 0.017 0.262 0.030 0.369-0.307 0.019-0.066 0.035-0.15 0.046-0.246 0.247 0.033 0.732 0.013 1.272 0.055 0.378 0.027 0.779 0.092 1.137 0.193 0.36 0.102 0.664 0.241 0.894 0.368 0.419 0.231 0.68 0.477 0.864 0.667 0.031 0.033 0.058 0.062 0.085 0.092-0.054 0.122-0.113 0.257-0.178 0.411-1.982 4.668-3.415 9.094-3.646 9.302zM27.43 25.183c0.664 1.157 0.872 1.955-0.527 1.684-0.382-0.064-0.804-0.16-1.281-0.208-3.444-0.368-2.78 2.65-2.802 3.010-0.009 0.199-0.057 0.391-0.136 0.528-0.080 0.138-0.177 0.215-0.318 0.254-0.256 0.082-0.632-0.123-0.932-0.438-0.395-0.4-3.331-4.761-4.585-6.284 0.331-0.951 0.563-1.663 0.718-2.194 0.015-0.051 0.028-0.097 0.042-0.145 0.070 0.022 0.135 0.011 0.204-0.010 0.123-0.036 0.253-0.076 0.212-0.416-0.014-0.094-0.048-0.214-0.108-0.353 0.175-0.106 0.39-0.235 0.641-0.34 0.282-0.123 0.599-0.219 0.9-0.266 0.3-0.051 0.583-0.053 0.804-0.046 0.403 0.014 0.703 0.084 0.93 0.136 0.227 0.054 0.383 0.098 0.499 0.112 0.090 0.013 0.156 0.007 0.209-0.011 0.015 0.067 0.031 0.129 0.049 0.178 0.126 0.325 0.258 0.302 0.385 0.277 0.134-0.026 0.239-0.069 0.295-0.342 0.032-0.136 0.053-0.33 0.118-0.606 0.062-0.255 0.157-0.592 0.385-0.974 0.054 0.162 0.235 0.462 0.686 1.082 1.054 1.48 2.449 3.369 3.614 5.372zM9.001 7.769c-0.078-0.702-0.254-1.186-0.394-1.537-0.123-0.299-0.23-0.499-0.322-0.64 0.043 0.015 0.089 0.031 0.14 0.048 1.751 0.523 3.027-0.323 3.468-1.476 0.223-0.573 0.229-1.058 0.184-1.422 0.216 0.227 0.554 0.479 0.984 0.653 1.52 0.612 3.093 0.046 3.848-1.794 0.008-0.022 0.014-0.040 0.022-0.061 0.621 0.859 2.279 2.126 3.739 1.762 0.692-0.181 1.116-0.505 1.403-0.747-0.001 0.302 0.025 0.658 0.11 1.042 0.276 1.298 1.21 2.268 2.218 2.547 0.421 0.124 0.813 0.126 1.136 0.088 0.325-0.042 0.59-0.125 0.806-0.213 0.005-0.002 0.010-0.004 0.015-0.007-0.007 0.008-0.014 0.013-0.021 0.020-0.223 0.241-0.483 0.633-0.643 1.127-0.517 1.537 0.089 3.257 1.561 4.186 0.208 0.125 0.382 0.203 0.532 0.256-0.273 0.060-0.592 0.168-0.915 0.348-1.331 0.735-1.994 2.191-1.416 4.12 0.088 0.273 0.178 0.47 0.261 0.615-0.28-0.056-0.653-0.080-1.063-0.012-1.438 0.214-2.61 1.347-2.779 2.809-0.095-0.072-0.218-0.149-0.387-0.225-0.274-0.12-0.663-0.244-1.195-0.262-0.29-0.010-0.67 0.026-1.049 0.147-0.379 0.117-0.751 0.315-1.044 0.548-0.135 0.106-0.251 0.219-0.351 0.33-0.021-0.048-0.053-0.065-0.087-0.077-0.058-0.019-0.114-0.025-0.21 0.095-0.21-0.248-0.509-0.515-0.933-0.749-0.298-0.166-0.722-0.322-1.171-0.391-0.451-0.071-0.929-0.068-1.35-0.006-0.55 0.079-0.996 0.238-1.233 0.372-0.001-0.094-0.005-0.195-0.019-0.311-0.051-0.377-0.182-0.89-0.572-1.451-0.679-0.983-2.003-1.666-3.518-1.447-0.022 0.003-0.042 0.007-0.063 0.011 0.099-0.121 0.215-0.29 0.343-0.535 0.53-1.039 0.46-2.023-0.223-2.948-0.298-0.412-0.682-0.783-1.073-1.058-0.242-0.172-0.482-0.304-0.699-0.403 0.301-0.077 0.658-0.25 0.972-0.538 0.68-0.622 1.103-1.623 0.989-2.816z"></path>
<path fill="#04bb21" style="fill: var(--color1, #04bb21)" d="M15.228 13.786c0.295 0.214 0.7 0.397 1.188 0.351 0.242-0.022 0.492-0.124 0.686-0.26 0.197-0.136 0.355-0.295 0.495-0.444 0.726-0.795 4.482-5.024 4.502-5.048 0.341-0.399 0.291-0.503 0.207-0.61-0.081-0.103-0.175-0.193-0.65 0.090-1.481 0.9-3.578 3.656-4.666 5.046-0.23 0.298-0.433 0.5-0.677 0.552-0.252 0.062-0.556-0.008-0.797-0.132s-0.447-0.309-0.61-0.472c-0.326-0.336-0.529-0.575-0.588-0.534-0.051 0.034 0.034 0.326 0.292 0.765 0.134 0.217 0.318 0.473 0.618 0.697z"></path>
</symbol>
<symbol id="icon-burger" viewBox="0 0 32 32">
<path d="M2.189 13.686h27.622c0.614 0 1.202 0.244 1.636 0.678s0.678 1.022 0.678 1.636-0.244 1.202-0.678 1.636c-0.434 0.434-1.022 0.678-1.636 0.678h-27.622c-0.614 0-1.202-0.244-1.636-0.678s-0.678-1.022-0.678-1.636 0.244-1.202 0.678-1.636c0.434-0.434 1.022-0.678 1.636-0.678zM29.811 15.686h-27.622c-0.083 0-0.163 0.033-0.222 0.092s-0.092 0.139-0.092 0.222c0 0.083 0.033 0.163 0.092 0.222s0.139 0.092 0.222 0.092h27.622c0.083 0 0.163-0.033 0.222-0.092s0.092-0.139 0.092-0.222c0-0.083-0.033-0.163-0.092-0.222s-0.139-0.092-0.222-0.092zM2.189 4.747h27.622c0.612 0.003 1.197 0.248 1.628 0.682s0.673 1.020 0.673 1.632c0 0.612-0.242 1.198-0.673 1.632s-1.017 0.679-1.628 0.682h-27.622c-0.612-0.003-1.197-0.248-1.628-0.682s-0.673-1.020-0.673-1.632c0-0.612 0.242-1.198 0.673-1.632s1.017-0.679 1.628-0.682zM29.811 6.747h-27.622c-0.082 0.001-0.161 0.035-0.219 0.093s-0.090 0.138-0.090 0.22c0 0.082 0.032 0.162 0.090 0.22s0.137 0.092 0.219 0.093h27.622c0.082-0.001 0.161-0.035 0.219-0.093s0.090-0.138 0.090-0.22c0-0.082-0.032-0.162-0.090-0.22s-0.137-0.092-0.219-0.093zM2.189 22.625h27.622c0.612 0.003 1.197 0.248 1.628 0.682s0.673 1.020 0.673 1.632c0 0.612-0.242 1.198-0.673 1.632s-1.017 0.679-1.628 0.682h-27.622c-0.612-0.003-1.197-0.248-1.628-0.682s-0.673-1.020-0.673-1.632c0-0.612 0.242-1.198 0.673-1.632s1.017-0.679 1.628-0.682zM29.811 24.625h-27.622c-0.082 0.001-0.161 0.035-0.219 0.093s-0.090 0.138-0.090 0.22c0 0.083 0.032 0.162 0.090 0.22s0.137 0.092 0.219 0.093h27.622c0.082-0.001 0.161-0.035 0.219-0.093s0.090-0.138 0.090-0.22c0-0.082-0.032-0.162-0.090-0.22s-0.137-0.092-0.219-0.093zM2.189 7.375h27.622c0.082-0.001 0.161-0.035 0.219-0.093s0.090-0.138 0.090-0.22c0-0.082-0.032-0.162-0.090-0.22s-0.137-0.092-0.219-0.093h-27.622c-0.082 0.001-0.161 0.035-0.219 0.093s-0.090 0.138-0.090 0.22c0 0.082 0.032 0.162 0.090 0.22s0.137 0.092 0.219 0.093zM29.811 15.686h-27.622c-0.083 0-0.163 0.033-0.222 0.092s-0.092 0.139-0.092 0.222 0.033 0.163 0.092 0.222c0.059 0.059 0.139 0.092 0.222 0.092h27.622c0.083 0 0.163-0.033 0.222-0.092s0.092-0.139 0.092-0.222-0.033-0.163-0.092-0.222c-0.059-0.059-0.139-0.092-0.222-0.092zM29.811 24.625h-27.622c-0.082 0.001-0.161 0.035-0.219 0.093s-0.090 0.138-0.090 0.22c0 0.083 0.032 0.162 0.090 0.22s0.137 0.092 0.219 0.093h27.622c0.082-0.001 0.161-0.035 0.219-0.093s0.090-0.138 0.090-0.22c0-0.082-0.032-0.162-0.090-0.22s-0.137-0.092-0.219-0.093z"></path>
</symbol>
<symbol id="icon-check-mark" viewBox="0 0 32 32">
<path fill="#04bb21" style="fill: var(--color1, #04bb21)" d="M16 32c-8.822 0-16-7.178-16-16s7.178-16 16-16c8.822 0 16 7.178 16 16s-7.178 16-16 16zM16 2c-7.72 0-14 6.28-14 14s6.28 14 14 14c7.72 0 14-6.28 14-14s-6.28-14-14-14zM13.707 21.707l10-10c0.391-0.391 0.391-1.024 0-1.414s-1.024-0.391-1.414 0l-9.293 9.293-3.293-3.293c-0.391-0.391-1.024-0.391-1.414 0s-0.391 1.024 0 1.414l4 4c0.195 0.195 0.451 0.293 0.707 0.293s0.512-0.098 0.707-0.293z"></path>
</symbol>
<symbol id="icon-cross-down" viewBox="0 0 32 32">
<path d="M0 16.009c-0.003-0.454 0.13-0.898 0.381-1.276s0.609-0.673 1.028-0.847c0.419-0.174 0.881-0.219 1.326-0.13s0.853 0.309 1.173 0.631l12.088 12.111 12.088-12.111c0.437-0.374 0.999-0.57 1.574-0.548s1.121 0.261 1.528 0.668c0.407 0.407 0.645 0.952 0.668 1.528s-0.173 1.137-0.548 1.575l-13.71 13.71c-0.428 0.426-1.007 0.664-1.611 0.664s-1.183-0.239-1.611-0.664l-13.71-13.71c-0.422-0.426-0.66-1-0.663-1.6z"></path>
<path d="M0 2.298c-0.003-0.454 0.13-0.898 0.381-1.276s0.609-0.673 1.028-0.847c0.419-0.174 0.881-0.219 1.326-0.13s0.853 0.309 1.173 0.631l12.088 12.111 12.088-12.111c0.43-0.43 1.014-0.672 1.622-0.672s1.192 0.242 1.622 0.672c0.43 0.43 0.672 1.014 0.672 1.622s-0.242 1.192-0.672 1.622l-13.71 13.71c-0.428 0.426-1.007 0.665-1.611 0.665s-1.183-0.239-1.611-0.665l-13.71-13.71c-0.216-0.212-0.388-0.464-0.505-0.743s-0.179-0.578-0.18-0.88z"></path>
</symbol>
<symbol id="icon-delivery" viewBox="0 0 32 32">
<path d="M24.168 19.025c-2.224 0-4.034 1.809-4.034 4.034s1.809 4.034 4.034 4.034c2.225 0 4.034-1.809 4.034-4.034s-1.809-4.034-4.034-4.034zM24.168 25.076c-1.112 0-2.017-0.905-2.017-2.017s0.905-2.017 2.017-2.017c1.112 0 2.017 0.905 2.017 2.017s-0.905 2.017-2.017 2.017z"></path>
<path d="M10.387 19.025c-2.224 0-4.034 1.809-4.034 4.034s1.809 4.034 4.034 4.034 4.034-1.809 4.034-4.034c0-2.224-1.809-4.034-4.034-4.034zM10.387 25.076c-1.112 0-2.017-0.905-2.017-2.017s0.905-2.017 2.017-2.017c1.112 0 2.017 0.905 2.017 2.017s-0.905 2.017-2.017 2.017z"></path>
<path d="M26.884 7.48c-0.171-0.341-0.52-0.555-0.901-0.555h-5.311v2.017h4.689l2.746 5.462 1.802-0.906-3.025-6.017z"></path>
<path d="M21.143 22.084h-7.63v2.017h7.63v-2.017z"></path>
<path d="M7.361 22.084h-3.496c-0.557 0-1.008 0.451-1.008 1.008s0.451 1.008 1.008 1.008h3.496c0.557 0 1.008-0.451 1.008-1.008s-0.451-1.008-1.008-1.008z"></path>
<path d="M31.788 15.919l-1.983-2.555c-0.191-0.246-0.485-0.39-0.796-0.39h-7.328v-7.059c0-0.557-0.451-1.008-1.008-1.008h-16.807c-0.557 0-1.008 0.451-1.008 1.008s0.451 1.008 1.008 1.008h15.798v7.059c0 0.557 0.451 1.008 1.008 1.008h7.842l1.469 1.892v5.201h-2.79c-0.557 0-1.008 0.451-1.008 1.008s0.451 1.008 1.008 1.008h3.798c0.557 0 1.008-0.451 1.008-1.008v-6.554c0-0.224-0.075-0.442-0.212-0.619z"></path>
<path d="M7.294 16.975h-4.639c-0.557 0-1.008 0.451-1.008 1.008s0.451 1.008 1.008 1.008h4.639c0.557 0 1.008-0.451 1.008-1.008s-0.451-1.008-1.008-1.008z"></path>
<path d="M9.613 13.008h-8.605c-0.557 0-1.008 0.451-1.008 1.008s0.451 1.008 1.008 1.008h8.605c0.557 0 1.008-0.451 1.008-1.008s-0.451-1.008-1.008-1.008z"></path>
<path d="M11.261 9.042h-8.605c-0.557 0-1.008 0.451-1.008 1.008s0.451 1.008 1.008 1.008h8.605c0.557 0 1.008-0.451 1.008-1.008s-0.451-1.008-1.008-1.008z"></path>
</symbol>
<symbol id="icon-Deutshc" viewBox="0 0 32 32">
<path fill="#000" style="fill: var(--color2, #000)" d="M0 5.641h32v6.909h-32v-6.909z"></path>
<path fill="#ffce00" style="fill: var(--color3, #ffce00)" d="M0 19.453h32v6.909h-32v-6.909z"></path>
<path fill="#d00" style="fill: var(--color4, #d00)" d="M0 12.55h32v6.909h-32v-6.909z"></path>
</symbol>
<symbol id="icon-heart-line" viewBox="0 0 32 32">
<path fill="#474a51" style="fill: var(--color5, #474a51)" d="M16.001 5.965c3.132-2.778 7.972-2.686 10.989 0.3 3.016 2.987 3.12 7.745 0.315 10.848l-11.307 11.185-11.304-11.185c-2.805-3.103-2.7-7.869 0.315-10.848 3.020-2.982 7.851-3.082 10.992-0.3v0zM25.103 8.127c-2-1.978-5.227-2.059-7.32-0.202l-1.78 1.578-1.781-1.577c-2.1-1.86-5.32-1.778-7.325 0.203-1.987 1.963-2.087 5.104-0.256 7.18l9.36 9.261 9.36-9.26c1.832-2.077 1.732-5.215-0.257-7.184v0z"></path>
</symbol>
<symbol id="icon-search" viewBox="0 0 32 32">
<path fill="#fff" style="fill: var(--color6, #fff)" d="M0.303 30.259l8.262-8.13c-2.164-2.351-3.493-5.459-3.493-8.88 0.001-7.318 6.028-13.249 13.464-13.249s13.463 5.931 13.463 13.249c0 7.318-6.027 13.249-13.463 13.249-3.213 0-6.159-1.111-8.474-2.959l-8.294 8.162c-0.404 0.398-1.060 0.398-1.464 0s-0.405-1.044-0.001-1.442zM18.536 24.46c6.291 0 11.392-5.019 11.392-11.211s-5.1-11.211-11.392-11.211c-6.291 0-11.392 5.019-11.392 11.211s5.1 11.211 11.392 11.211z"></path>
</symbol>
<symbol id="icon-shopping-cart-2-line" viewBox="0 0 32 32">
<path fill="#474a51" style="fill: var(--color5, #474a51)" d="M5.333 8.448l-4.324-4.27 1.887-1.864 4.323 4.272h20.323c0.208 0 0.413 0.048 0.599 0.14s0.347 0.226 0.471 0.391c0.124 0.165 0.207 0.356 0.244 0.558s0.024 0.41-0.036 0.607l-3.2 10.537c-0.082 0.271-0.251 0.509-0.481 0.679s-0.509 0.261-0.796 0.261h-16.341v2.634h14.667v2.634h-16c-0.354 0-0.693-0.139-0.943-0.386s-0.391-0.582-0.391-0.931v-15.261zM8 9.22v7.903h15.349l2.4-7.903h-17.749zM7.333 30.295c-0.53 0-1.039-0.208-1.414-0.579s-0.586-0.873-0.586-1.397c0-0.524 0.211-1.027 0.586-1.397s0.884-0.579 1.414-0.579c0.53 0 1.039 0.208 1.414 0.579s0.586 0.873 0.586 1.397c0 0.524-0.211 1.026-0.586 1.397s-0.884 0.579-1.414 0.579zM23.333 30.295c-0.53 0-1.039-0.208-1.414-0.579s-0.586-0.873-0.586-1.397c0-0.524 0.211-1.027 0.586-1.397s0.884-0.579 1.414-0.579c0.53 0 1.039 0.208 1.414 0.579s0.586 0.873 0.586 1.397c0 0.524-0.211 1.026-0.586 1.397s-0.884 0.579-1.414 0.579z"></path>
</symbol>
<symbol id="icon-user" viewBox="0 0 32 32">
<path fill="#5e5e5e" style="fill: var(--color7, #5e5e5e)" d="M16 32c8.837 0 16-7.163 16-16s-7.163-16-16-16c-8.837 0-16 7.163-16 16s7.163 16 16 16z"></path>
<path fill="#fff" style="fill: var(--color6, #fff)" d="M20.646 24.437h-9.293c-0.57 0-1.117-0.226-1.52-0.63s-0.63-0.95-0.63-1.52v-1.45c0.001-1.349 0.537-2.643 1.492-3.598s2.249-1.49 3.598-1.49h3.412c1.35 0 2.644 0.536 3.599 1.491s1.491 2.249 1.491 3.599v1.45c-0.001 0.57-0.227 1.116-0.63 1.519s-0.95 0.629-1.52 0.629z"></path>
<path fill="#fff" style="fill: var(--color6, #fff)" d="M16 14.804c2 0 3.621-1.621 3.621-3.621s-1.621-3.621-3.621-3.621c-2 0-3.621 1.621-3.621 3.621s1.621 3.621 3.621 3.621z"></path>
</symbol>
</defs>
</svg>
