<svg width="31" height="31" viewBox="0 0 31 31" fill="none" xmlns="http://www.w3.org/2000/svg">
<g clip-path="url(#clip0_209_30726)">
<path d="M15.5 31C24.0604 31 31 24.0604 31 15.5C31 6.93959 24.0604 0 15.5 0C6.93959 0 0 6.93959 0 15.5C0 24.0604 6.93959 31 15.5 31Z" fill="#5E5E5E"/>
<path d="M20.0011 23.6738H10.999C10.4466 23.6738 9.91678 23.4544 9.52618 23.0638C9.13558 22.6732 8.91614 22.1434 8.91614 21.591V20.1863C8.91678 18.879 9.43657 17.6254 10.3612 16.7012C11.2859 15.777 12.5397 15.2578 13.8471 15.2578H17.1529C18.4606 15.2578 19.7147 15.7772 20.6394 16.7018C21.5641 17.6264 22.0837 18.8805 22.0839 20.1881V21.5928C22.0834 22.1449 21.8637 22.6742 21.4732 23.0644C21.0826 23.4546 20.5531 23.6738 20.0011 23.6738Z" fill="white"/>
<path d="M15.5 14.3411C17.4372 14.3411 19.0075 12.7708 19.0075 10.8337C19.0075 8.89652 17.4372 7.32617 15.5 7.32617C13.5629 7.32617 11.9926 8.89652 11.9926 10.8337C11.9926 12.7708 13.5629 14.3411 15.5 14.3411Z" fill="white"/>
</g>
<defs>
<clipPath id="clip0_209_30726">
<rect width="31" height="31" fill="white"/>
</clipPath>
</defs>
</svg>
